<?xml version="1.0" standalone="no"?>
<!DOCTYPE svg PUBLIC "-//W3C//DTD SVG 20010904//EN"
 "http://www.w3.org/TR/2001/REC-SVG-20010904/DTD/svg10.dtd">
<svg version="1.0" xmlns="http://www.w3.org/2000/svg"
 width="700.000000pt" height="700.000000pt" viewBox="0 0 700.000000 700.000000"
 preserveAspectRatio="xMidYMid meet">
<metadata>
Created by potrace 1.11, written by Peter Selinger 2001-2013
</metadata>
<g transform="translate(0.000000,700.000000) scale(0.100000,-0.100000)"
fill="#000000" stroke="none">
<path d="M0 4520 l0 -2480 145 0 145 0 0 145 0 145 438 2 437 3 3 438 2 437
145 0 145 0 0 145 0 145 435 0 435 0 0 -145 0 -145 150 0 150 0 0 145 0 145
435 0 435 0 0 -730 0 -730 145 0 145 0 0 145 0 145 438 2 437 3 3 438 2 437
145 0 145 0 0 145 0 145 -730 0 -730 0 0 435 0 435 145 0 145 0 0 150 0 150
-145 0 -145 0 0 435 0 435 145 0 145 0 0 145 0 145 438 2 437 3 3 438 2 437
145 0 145 0 0 145 0 145 -2480 0 -2480 0 0 -2480z"/>
<path d="M5830 6855 l0 -145 145 0 145 0 0 145 0 145 -145 0 -145 0 0 -145z"/>
<path d="M4670 5685 l0 -145 145 0 145 0 0 145 0 145 -145 0 -145 0 0 -145z"/>
<path d="M5830 5685 l0 -146 148 3 147 3 3 143 3 142 -151 0 -150 0 0 -145z"/>
<path d="M4670 4520 l0 -151 143 3 142 3 3 148 3 147 -146 0 -145 0 0 -150z"/>
<path d="M5834 4657 c-2 -7 -3 -74 -2 -148 l3 -134 145 0 145 0 0 145 0 145
-143 3 c-111 2 -144 0 -148 -11z"/>
<path d="M5830 3355 l0 -145 145 0 145 0 0 145 0 145 -145 0 -145 0 0 -145z"/>
<path d="M1170 2185 l0 -145 145 0 145 0 0 145 0 145 -145 0 -145 0 0 -145z"/>
<path d="M2330 2185 l0 -145 145 0 145 0 0 145 0 145 -145 0 -145 0 0 -145z"/>
<path d="M4670 2185 l0 -145 145 0 145 0 0 145 0 145 -145 0 -145 0 0 -145z"/>
<path d="M5830 2185 l0 -145 145 0 145 0 0 145 0 145 -145 0 -145 0 0 -145z"/>
<path d="M0 1025 l0 -145 145 0 145 0 0 145 0 145 -145 0 -145 0 0 -145z"/>
<path d="M1170 1025 l0 -145 145 0 145 0 0 145 0 145 -145 0 -145 0 0 -145z"/>
<path d="M2337 1163 c-4 -3 -7 -69 -7 -145 l0 -138 145 0 145 0 0 145 0 145
-138 0 c-76 0 -142 -3 -145 -7z"/>
<path d="M3500 1025 l0 -145 145 0 145 0 0 145 0 145 -145 0 -145 0 0 -145z"/>
<path d="M4670 1025 l0 -145 145 0 145 0 0 145 0 145 -145 0 -145 0 0 -145z"/>
<path d="M5837 1163 c-4 -3 -7 -69 -7 -145 l0 -138 145 0 145 0 0 145 0 145
-138 0 c-76 0 -142 -3 -145 -7z"/>
</g>
</svg>
